<mxfile host="app.diagrams.net" agent="Mozilla/5.0 (Macintosh; Intel Mac OS X 10_15_7) AppleWebKit/605.1.15 (KHTML, like Gecko) Version/18.6 Safari/605.1.15" version="28.2.1">
  <diagram id="5fbcG3KwnYf6Rpxg08Wx" name="Página-1">
    <mxGraphModel dx="1270" dy="323" grid="0" gridSize="10" guides="1" tooltips="1" connect="1" arrows="1" fold="1" page="0" pageScale="1" pageWidth="827" pageHeight="1169" math="0" shadow="0">
      <root>
        <mxCell id="0" />
        <mxCell id="1" parent="0" />
        <mxCell id="uRwzK3sYCpa1AdK9t9Te-31" value="persona" style="rounded=1;whiteSpace=wrap;html=1;fillColor=#dae8fc;strokeColor=#6c8ebf;" vertex="1" parent="1">
          <mxGeometry x="138" y="909" width="120" height="53" as="geometry" />
        </mxCell>
        <mxCell id="uRwzK3sYCpa1AdK9t9Te-32" value="&lt;u&gt;run&lt;/u&gt;" style="ellipse;whiteSpace=wrap;html=1;fillColor=#fff2cc;strokeColor=#d6b656;" vertex="1" parent="1">
          <mxGeometry x="278" y="809" width="80" height="42" as="geometry" />
        </mxCell>
        <mxCell id="uRwzK3sYCpa1AdK9t9Te-33" value="nombre" style="ellipse;whiteSpace=wrap;html=1;fillColor=#fff2cc;strokeColor=#d6b656;" vertex="1" parent="1">
          <mxGeometry x="232" y="766" width="77" height="39" as="geometry" />
        </mxCell>
        <mxCell id="uRwzK3sYCpa1AdK9t9Te-34" value="apellidos" style="ellipse;whiteSpace=wrap;html=1;fillColor=#fff2cc;strokeColor=#d6b656;" vertex="1" parent="1">
          <mxGeometry x="162" y="736" width="72" height="41" as="geometry" />
        </mxCell>
        <mxCell id="uRwzK3sYCpa1AdK9t9Te-35" value="direccion" style="ellipse;whiteSpace=wrap;html=1;fillColor=#fff2cc;strokeColor=#d6b656;" vertex="1" parent="1">
          <mxGeometry x="32" y="803" width="82" height="48" as="geometry" />
        </mxCell>
        <mxCell id="uRwzK3sYCpa1AdK9t9Te-36" value="telefóno" style="ellipse;whiteSpace=wrap;html=1;fillColor=#fff2cc;strokeColor=#d6b656;" vertex="1" parent="1">
          <mxGeometry x="25" y="859.5" width="76" height="46" as="geometry" />
        </mxCell>
        <mxCell id="uRwzK3sYCpa1AdK9t9Te-37" value="correo electrónico" style="ellipse;whiteSpace=wrap;html=1;fillColor=#fff2cc;strokeColor=#d6b656;" vertex="1" parent="1">
          <mxGeometry x="68" y="752" width="81" height="49" as="geometry" />
        </mxCell>
        <mxCell id="uRwzK3sYCpa1AdK9t9Te-38" value="IsA" style="triangle;whiteSpace=wrap;html=1;direction=south;fillColor=#d5e8d4;strokeColor=#82b366;" vertex="1" parent="1">
          <mxGeometry x="158" y="1018" width="80" height="60" as="geometry" />
        </mxCell>
        <mxCell id="uRwzK3sYCpa1AdK9t9Te-40" value="trabajador" style="rounded=1;whiteSpace=wrap;html=1;fillColor=#dae8fc;strokeColor=#6c8ebf;" vertex="1" parent="1">
          <mxGeometry x="65" y="1126" width="120" height="60" as="geometry" />
        </mxCell>
        <mxCell id="uRwzK3sYCpa1AdK9t9Te-41" value="paciente" style="rounded=1;whiteSpace=wrap;html=1;fillColor=#dae8fc;strokeColor=#6c8ebf;" vertex="1" parent="1">
          <mxGeometry x="242" y="1126" width="120" height="60" as="geometry" />
        </mxCell>
        <mxCell id="uRwzK3sYCpa1AdK9t9Te-42" value="IsA" style="triangle;whiteSpace=wrap;html=1;direction=south;fillColor=#d5e8d4;strokeColor=#82b366;" vertex="1" parent="1">
          <mxGeometry x="85" y="1246" width="80" height="60" as="geometry" />
        </mxCell>
        <mxCell id="uRwzK3sYCpa1AdK9t9Te-43" value="medico" style="rounded=1;whiteSpace=wrap;html=1;fillColor=#dae8fc;strokeColor=#6c8ebf;" vertex="1" parent="1">
          <mxGeometry x="-6" y="1382" width="120" height="60" as="geometry" />
        </mxCell>
        <mxCell id="uRwzK3sYCpa1AdK9t9Te-44" value="administrativo" style="rounded=1;whiteSpace=wrap;html=1;fillColor=#dae8fc;strokeColor=#6c8ebf;" vertex="1" parent="1">
          <mxGeometry x="136" y="1380" width="120" height="60" as="geometry" />
        </mxCell>
        <mxCell id="uRwzK3sYCpa1AdK9t9Te-45" value="profesion" style="ellipse;whiteSpace=wrap;html=1;fillColor=#fff2cc;strokeColor=#d6b656;" vertex="1" parent="1">
          <mxGeometry x="-146" y="1383" width="99" height="54" as="geometry" />
        </mxCell>
        <mxCell id="uRwzK3sYCpa1AdK9t9Te-47" value="" style="endArrow=none;html=1;rounded=0;fontSize=12;startSize=8;endSize=8;curved=1;" edge="1" parent="1">
          <mxGeometry width="50" height="50" relative="1" as="geometry">
            <mxPoint x="304" y="1501" as="sourcePoint" />
            <mxPoint x="306" y="1186" as="targetPoint" />
          </mxGeometry>
        </mxCell>
        <mxCell id="uRwzK3sYCpa1AdK9t9Te-48" value="" style="endArrow=none;html=1;rounded=0;fontSize=12;startSize=8;endSize=8;curved=1;" edge="1" parent="1">
          <mxGeometry width="50" height="50" relative="1" as="geometry">
            <mxPoint x="54" y="1529" as="sourcePoint" />
            <mxPoint x="54" y="1443" as="targetPoint" />
          </mxGeometry>
        </mxCell>
        <mxCell id="uRwzK3sYCpa1AdK9t9Te-49" value="recibe" style="rhombus;whiteSpace=wrap;html=1;fillColor=#f8cecc;strokeColor=#b85450;" vertex="1" parent="1">
          <mxGeometry x="264" y="1499" width="80" height="80" as="geometry" />
        </mxCell>
        <mxCell id="uRwzK3sYCpa1AdK9t9Te-50" value="realiza" style="rhombus;whiteSpace=wrap;html=1;fillColor=#f8cecc;strokeColor=#b85450;" vertex="1" parent="1">
          <mxGeometry x="14" y="1530" width="80" height="80" as="geometry" />
        </mxCell>
        <mxCell id="uRwzK3sYCpa1AdK9t9Te-51" value="consulta medica" style="rounded=1;whiteSpace=wrap;html=1;fillColor=#dae8fc;strokeColor=#6c8ebf;" vertex="1" parent="1">
          <mxGeometry x="138" y="1714" width="120" height="60" as="geometry" />
        </mxCell>
        <mxCell id="uRwzK3sYCpa1AdK9t9Te-52" value="" style="endArrow=none;html=1;rounded=0;fontSize=12;startSize=8;endSize=8;curved=1;entryX=0.5;entryY=1;entryDx=0;entryDy=0;exitX=0.5;exitY=0;exitDx=0;exitDy=0;" edge="1" parent="1" source="uRwzK3sYCpa1AdK9t9Te-51" target="uRwzK3sYCpa1AdK9t9Te-49">
          <mxGeometry width="50" height="50" relative="1" as="geometry">
            <mxPoint x="210" y="1680" as="sourcePoint" />
            <mxPoint x="260" y="1630" as="targetPoint" />
          </mxGeometry>
        </mxCell>
        <mxCell id="uRwzK3sYCpa1AdK9t9Te-53" value="" style="endArrow=none;html=1;rounded=0;fontSize=12;startSize=8;endSize=8;curved=1;entryX=0.5;entryY=1;entryDx=0;entryDy=0;exitX=0.5;exitY=0;exitDx=0;exitDy=0;" edge="1" parent="1" source="uRwzK3sYCpa1AdK9t9Te-51" target="uRwzK3sYCpa1AdK9t9Te-50">
          <mxGeometry width="50" height="50" relative="1" as="geometry">
            <mxPoint x="210" y="1680" as="sourcePoint" />
            <mxPoint x="260" y="1630" as="targetPoint" />
          </mxGeometry>
        </mxCell>
        <mxCell id="uRwzK3sYCpa1AdK9t9Te-54" value="" style="endArrow=none;html=1;rounded=0;fontSize=12;startSize=8;endSize=8;curved=1;entryX=1;entryY=0.5;entryDx=0;entryDy=0;exitX=0;exitY=0.5;exitDx=0;exitDy=0;" edge="1" parent="1" source="uRwzK3sYCpa1AdK9t9Te-55" target="uRwzK3sYCpa1AdK9t9Te-51">
          <mxGeometry width="50" height="50" relative="1" as="geometry">
            <mxPoint x="333" y="1696" as="sourcePoint" />
            <mxPoint x="260" y="1809" as="targetPoint" />
          </mxGeometry>
        </mxCell>
        <mxCell id="uRwzK3sYCpa1AdK9t9Te-55" value="&lt;u&gt;id_consulta&lt;/u&gt;" style="ellipse;whiteSpace=wrap;html=1;fillColor=#fff2cc;strokeColor=#d6b656;" vertex="1" parent="1">
          <mxGeometry x="302" y="1620" width="82" height="52" as="geometry" />
        </mxCell>
        <mxCell id="uRwzK3sYCpa1AdK9t9Te-56" value="fecha" style="ellipse;whiteSpace=wrap;html=1;fillColor=#fff2cc;strokeColor=#d6b656;" vertex="1" parent="1">
          <mxGeometry x="312" y="1682" width="79" height="52" as="geometry" />
        </mxCell>
        <mxCell id="uRwzK3sYCpa1AdK9t9Te-57" value="" style="endArrow=none;html=1;rounded=0;fontSize=12;startSize=8;endSize=8;curved=1;entryX=0;entryY=0.5;entryDx=0;entryDy=0;exitX=1;exitY=0.5;exitDx=0;exitDy=0;" edge="1" parent="1" source="uRwzK3sYCpa1AdK9t9Te-51" target="uRwzK3sYCpa1AdK9t9Te-56">
          <mxGeometry width="50" height="50" relative="1" as="geometry">
            <mxPoint x="260" y="1738" as="sourcePoint" />
            <mxPoint x="260" y="1809" as="targetPoint" />
          </mxGeometry>
        </mxCell>
        <mxCell id="uRwzK3sYCpa1AdK9t9Te-58" value="diagnostico" style="ellipse;whiteSpace=wrap;html=1;fillColor=#fff2cc;strokeColor=#d6b656;" vertex="1" parent="1">
          <mxGeometry x="309.5" y="1751" width="84" height="56" as="geometry" />
        </mxCell>
        <mxCell id="uRwzK3sYCpa1AdK9t9Te-59" value="" style="endArrow=none;html=1;rounded=0;fontSize=12;startSize=8;endSize=8;curved=1;entryX=1;entryY=0.5;entryDx=0;entryDy=0;exitX=0;exitY=0.5;exitDx=0;exitDy=0;" edge="1" parent="1" source="uRwzK3sYCpa1AdK9t9Te-58" target="uRwzK3sYCpa1AdK9t9Te-51">
          <mxGeometry width="50" height="50" relative="1" as="geometry">
            <mxPoint x="210" y="1859" as="sourcePoint" />
            <mxPoint x="260" y="1809" as="targetPoint" />
          </mxGeometry>
        </mxCell>
        <mxCell id="uRwzK3sYCpa1AdK9t9Te-62" value="genera" style="rhombus;whiteSpace=wrap;html=1;" vertex="1" parent="1">
          <mxGeometry x="162" y="1838" width="80" height="80" as="geometry" />
        </mxCell>
        <mxCell id="uRwzK3sYCpa1AdK9t9Te-63" value="receta" style="rounded=1;whiteSpace=wrap;html=1;" vertex="1" parent="1">
          <mxGeometry x="142" y="1982" width="120" height="60" as="geometry" />
        </mxCell>
        <mxCell id="uRwzK3sYCpa1AdK9t9Te-64" value="id_receta" style="ellipse;whiteSpace=wrap;html=1;" vertex="1" parent="1">
          <mxGeometry x="257" y="1913" width="84" height="47" as="geometry" />
        </mxCell>
        <mxCell id="uRwzK3sYCpa1AdK9t9Te-65" value="fecha" style="ellipse;whiteSpace=wrap;html=1;" vertex="1" parent="1">
          <mxGeometry x="341" y="1960" width="75.5" height="47" as="geometry" />
        </mxCell>
        <mxCell id="uRwzK3sYCpa1AdK9t9Te-66" value="diagnostico" style="ellipse;whiteSpace=wrap;html=1;" vertex="1" parent="1">
          <mxGeometry x="403" y="2007" width="82.5" height="53" as="geometry" />
        </mxCell>
        <mxCell id="uRwzK3sYCpa1AdK9t9Te-67" value="firma doctor" style="ellipse;whiteSpace=wrap;html=1;" vertex="1" parent="1">
          <mxGeometry x="338" y="2063" width="74.5" height="49" as="geometry" />
        </mxCell>
        <mxCell id="uRwzK3sYCpa1AdK9t9Te-68" value="codigo autorización" style="ellipse;whiteSpace=wrap;html=1;" vertex="1" parent="1">
          <mxGeometry x="232" y="2060" width="96" height="51" as="geometry" />
        </mxCell>
        <mxCell id="uRwzK3sYCpa1AdK9t9Te-69" value="contiene" style="rhombus;whiteSpace=wrap;html=1;" vertex="1" parent="1">
          <mxGeometry x="164" y="2194" width="83" height="83" as="geometry" />
        </mxCell>
        <mxCell id="uRwzK3sYCpa1AdK9t9Te-71" value="maestro farmacia" style="rounded=1;whiteSpace=wrap;html=1;" vertex="1" parent="1">
          <mxGeometry x="147" y="2415" width="120" height="60" as="geometry" />
        </mxCell>
        <mxCell id="uRwzK3sYCpa1AdK9t9Te-72" value="codigo generico" style="ellipse;whiteSpace=wrap;html=1;" vertex="1" parent="1">
          <mxGeometry x="274" y="2336" width="98" height="55" as="geometry" />
        </mxCell>
        <mxCell id="uRwzK3sYCpa1AdK9t9Te-73" value="nombre generico" style="ellipse;whiteSpace=wrap;html=1;" vertex="1" parent="1">
          <mxGeometry x="358" y="2381" width="87" height="52" as="geometry" />
        </mxCell>
        <mxCell id="uRwzK3sYCpa1AdK9t9Te-74" value="descripción" style="ellipse;whiteSpace=wrap;html=1;" vertex="1" parent="1">
          <mxGeometry x="393.5" y="2446" width="94.5" height="51" as="geometry" />
        </mxCell>
        <mxCell id="uRwzK3sYCpa1AdK9t9Te-75" value="tipo" style="ellipse;whiteSpace=wrap;html=1;" vertex="1" parent="1">
          <mxGeometry x="30" y="2340" width="96" height="51" as="geometry" />
        </mxCell>
        <mxCell id="uRwzK3sYCpa1AdK9t9Te-76" value="clasificación_ONU" style="ellipse;whiteSpace=wrap;html=1;" vertex="1" parent="1">
          <mxGeometry x="-43" y="2400" width="108" height="67" as="geometry" />
        </mxCell>
        <mxCell id="uRwzK3sYCpa1AdK9t9Te-77" value="clasificación interna" style="ellipse;whiteSpace=wrap;html=1;" vertex="1" parent="1">
          <mxGeometry x="-62" y="2475" width="96" height="61" as="geometry" />
        </mxCell>
        <mxCell id="uRwzK3sYCpa1AdK9t9Te-78" value="precio" style="ellipse;whiteSpace=wrap;html=1;" vertex="1" parent="1">
          <mxGeometry x="30" y="2512" width="81" height="60" as="geometry" />
        </mxCell>
        <mxCell id="uRwzK3sYCpa1AdK9t9Te-79" value="estado" style="ellipse;whiteSpace=wrap;html=1;" vertex="1" parent="1">
          <mxGeometry x="312.5" y="2512" width="100" height="54" as="geometry" />
        </mxCell>
        <mxCell id="uRwzK3sYCpa1AdK9t9Te-80" value="genera" style="rhombus;whiteSpace=wrap;html=1;" vertex="1" parent="1">
          <mxGeometry x="7" y="1831" width="80" height="80" as="geometry" />
        </mxCell>
        <mxCell id="uRwzK3sYCpa1AdK9t9Te-81" value="orden" style="rounded=1;whiteSpace=wrap;html=1;" vertex="1" parent="1">
          <mxGeometry x="-206" y="1838" width="120" height="60" as="geometry" />
        </mxCell>
        <mxCell id="uRwzK3sYCpa1AdK9t9Te-82" value="" style="endArrow=none;html=1;rounded=0;fontSize=12;startSize=8;endSize=8;curved=1;entryX=0.5;entryY=1;entryDx=0;entryDy=0;exitX=0.5;exitY=0;exitDx=0;exitDy=0;" edge="1" parent="1" source="uRwzK3sYCpa1AdK9t9Te-63" target="uRwzK3sYCpa1AdK9t9Te-62">
          <mxGeometry width="50" height="50" relative="1" as="geometry">
            <mxPoint x="201" y="1982" as="sourcePoint" />
            <mxPoint x="201" y="1927" as="targetPoint" />
          </mxGeometry>
        </mxCell>
        <mxCell id="uRwzK3sYCpa1AdK9t9Te-83" value="" style="endArrow=none;html=1;rounded=0;fontSize=12;startSize=8;endSize=8;curved=1;entryX=0.413;entryY=1.016;entryDx=0;entryDy=0;entryPerimeter=0;exitX=1;exitY=0.5;exitDx=0;exitDy=0;" edge="1" parent="1" source="uRwzK3sYCpa1AdK9t9Te-63" target="uRwzK3sYCpa1AdK9t9Te-64">
          <mxGeometry width="50" height="50" relative="1" as="geometry">
            <mxPoint x="201" y="1982" as="sourcePoint" />
            <mxPoint x="251" y="1932" as="targetPoint" />
          </mxGeometry>
        </mxCell>
        <mxCell id="uRwzK3sYCpa1AdK9t9Te-84" value="" style="endArrow=none;html=1;rounded=0;fontSize=12;startSize=8;endSize=8;curved=1;entryX=0.5;entryY=1;entryDx=0;entryDy=0;exitX=1;exitY=0.5;exitDx=0;exitDy=0;" edge="1" parent="1" source="uRwzK3sYCpa1AdK9t9Te-63" target="uRwzK3sYCpa1AdK9t9Te-65">
          <mxGeometry width="50" height="50" relative="1" as="geometry">
            <mxPoint x="201" y="1982" as="sourcePoint" />
            <mxPoint x="251" y="1932" as="targetPoint" />
          </mxGeometry>
        </mxCell>
        <mxCell id="uRwzK3sYCpa1AdK9t9Te-85" value="" style="endArrow=none;html=1;rounded=0;fontSize=12;startSize=8;endSize=8;curved=1;entryX=0;entryY=0.5;entryDx=0;entryDy=0;exitX=1;exitY=0.5;exitDx=0;exitDy=0;" edge="1" parent="1" source="uRwzK3sYCpa1AdK9t9Te-63" target="uRwzK3sYCpa1AdK9t9Te-66">
          <mxGeometry width="50" height="50" relative="1" as="geometry">
            <mxPoint x="201" y="1982" as="sourcePoint" />
            <mxPoint x="251" y="1932" as="targetPoint" />
          </mxGeometry>
        </mxCell>
        <mxCell id="uRwzK3sYCpa1AdK9t9Te-86" value="" style="endArrow=none;html=1;rounded=0;fontSize=12;startSize=8;endSize=8;curved=1;entryX=0.5;entryY=0;entryDx=0;entryDy=0;exitX=1;exitY=0.5;exitDx=0;exitDy=0;" edge="1" parent="1" source="uRwzK3sYCpa1AdK9t9Te-63" target="uRwzK3sYCpa1AdK9t9Te-67">
          <mxGeometry width="50" height="50" relative="1" as="geometry">
            <mxPoint x="201" y="1982" as="sourcePoint" />
            <mxPoint x="251" y="1932" as="targetPoint" />
          </mxGeometry>
        </mxCell>
        <mxCell id="uRwzK3sYCpa1AdK9t9Te-87" value="" style="endArrow=none;html=1;rounded=0;fontSize=12;startSize=8;endSize=8;curved=1;entryX=0.5;entryY=0;entryDx=0;entryDy=0;exitX=1;exitY=0.5;exitDx=0;exitDy=0;" edge="1" parent="1" source="uRwzK3sYCpa1AdK9t9Te-63" target="uRwzK3sYCpa1AdK9t9Te-68">
          <mxGeometry width="50" height="50" relative="1" as="geometry">
            <mxPoint x="201" y="1982" as="sourcePoint" />
            <mxPoint x="251" y="1932" as="targetPoint" />
          </mxGeometry>
        </mxCell>
        <mxCell id="uRwzK3sYCpa1AdK9t9Te-88" value="" style="endArrow=none;html=1;rounded=0;fontSize=12;startSize=8;endSize=8;curved=1;entryX=0.5;entryY=1;entryDx=0;entryDy=0;exitX=0.5;exitY=0;exitDx=0;exitDy=0;" edge="1" parent="1" source="uRwzK3sYCpa1AdK9t9Te-69" target="uRwzK3sYCpa1AdK9t9Te-63">
          <mxGeometry width="50" height="50" relative="1" as="geometry">
            <mxPoint x="261" y="2279" as="sourcePoint" />
            <mxPoint x="208" y="2083" as="targetPoint" />
          </mxGeometry>
        </mxCell>
        <mxCell id="uRwzK3sYCpa1AdK9t9Te-89" value="" style="endArrow=none;html=1;rounded=0;fontSize=12;startSize=8;endSize=8;curved=1;entryX=0.5;entryY=1;entryDx=0;entryDy=0;exitX=1;exitY=0.5;exitDx=0;exitDy=0;" edge="1" parent="1" source="uRwzK3sYCpa1AdK9t9Te-71" target="uRwzK3sYCpa1AdK9t9Te-72">
          <mxGeometry width="50" height="50" relative="1" as="geometry">
            <mxPoint x="261" y="2428" as="sourcePoint" />
            <mxPoint x="311" y="2378" as="targetPoint" />
          </mxGeometry>
        </mxCell>
        <mxCell id="uRwzK3sYCpa1AdK9t9Te-90" value="" style="endArrow=none;html=1;rounded=0;fontSize=12;startSize=8;endSize=8;curved=1;exitX=1;exitY=0.5;exitDx=0;exitDy=0;entryX=0;entryY=0.5;entryDx=0;entryDy=0;" edge="1" parent="1" source="uRwzK3sYCpa1AdK9t9Te-71" target="uRwzK3sYCpa1AdK9t9Te-73">
          <mxGeometry width="50" height="50" relative="1" as="geometry">
            <mxPoint x="261" y="2428" as="sourcePoint" />
            <mxPoint x="361" y="2407" as="targetPoint" />
          </mxGeometry>
        </mxCell>
        <mxCell id="uRwzK3sYCpa1AdK9t9Te-91" value="" style="endArrow=none;html=1;rounded=0;fontSize=12;startSize=8;endSize=8;curved=1;exitX=1;exitY=0.5;exitDx=0;exitDy=0;entryX=0;entryY=0.5;entryDx=0;entryDy=0;" edge="1" parent="1" source="uRwzK3sYCpa1AdK9t9Te-71" target="uRwzK3sYCpa1AdK9t9Te-74">
          <mxGeometry width="50" height="50" relative="1" as="geometry">
            <mxPoint x="261" y="2428" as="sourcePoint" />
            <mxPoint x="311" y="2378" as="targetPoint" />
          </mxGeometry>
        </mxCell>
        <mxCell id="uRwzK3sYCpa1AdK9t9Te-92" value="" style="endArrow=none;html=1;rounded=0;fontSize=12;startSize=8;endSize=8;curved=1;exitX=1;exitY=0.5;exitDx=0;exitDy=0;entryX=0.5;entryY=0;entryDx=0;entryDy=0;" edge="1" parent="1" source="uRwzK3sYCpa1AdK9t9Te-71" target="uRwzK3sYCpa1AdK9t9Te-79">
          <mxGeometry width="50" height="50" relative="1" as="geometry">
            <mxPoint x="261" y="2428" as="sourcePoint" />
            <mxPoint x="311" y="2378" as="targetPoint" />
          </mxGeometry>
        </mxCell>
        <mxCell id="uRwzK3sYCpa1AdK9t9Te-93" value="" style="endArrow=none;html=1;rounded=0;fontSize=12;startSize=8;endSize=8;curved=1;exitX=0;exitY=0.5;exitDx=0;exitDy=0;entryX=0.5;entryY=1;entryDx=0;entryDy=0;" edge="1" parent="1" source="uRwzK3sYCpa1AdK9t9Te-71" target="uRwzK3sYCpa1AdK9t9Te-75">
          <mxGeometry width="50" height="50" relative="1" as="geometry">
            <mxPoint x="147" y="2446" as="sourcePoint" />
            <mxPoint x="197" y="2396" as="targetPoint" />
          </mxGeometry>
        </mxCell>
        <mxCell id="uRwzK3sYCpa1AdK9t9Te-94" value="" style="endArrow=none;html=1;rounded=0;fontSize=12;startSize=8;endSize=8;curved=1;exitX=0.5;exitY=0;exitDx=0;exitDy=0;entryX=0;entryY=0.5;entryDx=0;entryDy=0;" edge="1" parent="1" source="uRwzK3sYCpa1AdK9t9Te-78" target="uRwzK3sYCpa1AdK9t9Te-71">
          <mxGeometry width="50" height="50" relative="1" as="geometry">
            <mxPoint x="97" y="2494" as="sourcePoint" />
            <mxPoint x="147" y="2444" as="targetPoint" />
          </mxGeometry>
        </mxCell>
        <mxCell id="uRwzK3sYCpa1AdK9t9Te-95" value="" style="endArrow=none;html=1;rounded=0;fontSize=12;startSize=8;endSize=8;curved=1;entryX=0;entryY=0.5;entryDx=0;entryDy=0;exitX=1;exitY=0.5;exitDx=0;exitDy=0;" edge="1" parent="1" source="uRwzK3sYCpa1AdK9t9Te-77" target="uRwzK3sYCpa1AdK9t9Te-71">
          <mxGeometry width="50" height="50" relative="1" as="geometry">
            <mxPoint x="37" y="2492" as="sourcePoint" />
            <mxPoint x="87" y="2442" as="targetPoint" />
          </mxGeometry>
        </mxCell>
        <mxCell id="uRwzK3sYCpa1AdK9t9Te-96" value="" style="endArrow=none;html=1;rounded=0;fontSize=12;startSize=8;endSize=8;curved=1;entryX=0;entryY=0.5;entryDx=0;entryDy=0;exitX=1;exitY=0.5;exitDx=0;exitDy=0;" edge="1" parent="1" source="uRwzK3sYCpa1AdK9t9Te-76" target="uRwzK3sYCpa1AdK9t9Te-71">
          <mxGeometry width="50" height="50" relative="1" as="geometry">
            <mxPoint x="68" y="2439" as="sourcePoint" />
            <mxPoint x="118" y="2389" as="targetPoint" />
          </mxGeometry>
        </mxCell>
        <mxCell id="uRwzK3sYCpa1AdK9t9Te-98" value="id_orden" style="ellipse;whiteSpace=wrap;html=1;" vertex="1" parent="1">
          <mxGeometry x="-280" y="1748" width="93" height="55" as="geometry" />
        </mxCell>
        <mxCell id="uRwzK3sYCpa1AdK9t9Te-99" value="fecha" style="ellipse;whiteSpace=wrap;html=1;" vertex="1" parent="1">
          <mxGeometry x="-393" y="1762" width="94" height="60" as="geometry" />
        </mxCell>
        <mxCell id="uRwzK3sYCpa1AdK9t9Te-100" value="diagnostico" style="ellipse;whiteSpace=wrap;html=1;" vertex="1" parent="1">
          <mxGeometry x="-445" y="1833" width="85" height="62" as="geometry" />
        </mxCell>
        <mxCell id="uRwzK3sYCpa1AdK9t9Te-101" value="nombre y firma del doctor" style="ellipse;whiteSpace=wrap;html=1;" vertex="1" parent="1">
          <mxGeometry x="-402" y="1902" width="93" height="65" as="geometry" />
        </mxCell>
        <mxCell id="uRwzK3sYCpa1AdK9t9Te-102" value="" style="endArrow=none;html=1;rounded=0;fontSize=12;startSize=8;endSize=8;curved=1;entryX=0;entryY=0.5;entryDx=0;entryDy=0;exitX=0.5;exitY=1;exitDx=0;exitDy=0;" edge="1" parent="1" source="uRwzK3sYCpa1AdK9t9Te-98" target="uRwzK3sYCpa1AdK9t9Te-81">
          <mxGeometry width="50" height="50" relative="1" as="geometry">
            <mxPoint x="-208" y="1952" as="sourcePoint" />
            <mxPoint x="-158" y="1902" as="targetPoint" />
          </mxGeometry>
        </mxCell>
        <mxCell id="uRwzK3sYCpa1AdK9t9Te-103" value="" style="endArrow=none;html=1;rounded=0;fontSize=12;startSize=8;endSize=8;curved=1;entryX=0;entryY=0.5;entryDx=0;entryDy=0;exitX=0.617;exitY=0.967;exitDx=0;exitDy=0;exitPerimeter=0;" edge="1" parent="1" source="uRwzK3sYCpa1AdK9t9Te-99" target="uRwzK3sYCpa1AdK9t9Te-81">
          <mxGeometry width="50" height="50" relative="1" as="geometry">
            <mxPoint x="-208" y="1952" as="sourcePoint" />
            <mxPoint x="-158" y="1902" as="targetPoint" />
          </mxGeometry>
        </mxCell>
        <mxCell id="uRwzK3sYCpa1AdK9t9Te-104" value="" style="endArrow=none;html=1;rounded=0;fontSize=12;startSize=8;endSize=8;curved=1;entryX=0;entryY=0.5;entryDx=0;entryDy=0;exitX=1;exitY=0.5;exitDx=0;exitDy=0;" edge="1" parent="1" source="uRwzK3sYCpa1AdK9t9Te-100" target="uRwzK3sYCpa1AdK9t9Te-81">
          <mxGeometry width="50" height="50" relative="1" as="geometry">
            <mxPoint x="-204" y="1962" as="sourcePoint" />
            <mxPoint x="-154" y="1912" as="targetPoint" />
          </mxGeometry>
        </mxCell>
        <mxCell id="uRwzK3sYCpa1AdK9t9Te-105" value="" style="endArrow=none;html=1;rounded=0;fontSize=12;startSize=8;endSize=8;curved=1;entryX=0;entryY=0.5;entryDx=0;entryDy=0;exitX=1;exitY=0.5;exitDx=0;exitDy=0;" edge="1" parent="1" source="uRwzK3sYCpa1AdK9t9Te-101" target="uRwzK3sYCpa1AdK9t9Te-81">
          <mxGeometry width="50" height="50" relative="1" as="geometry">
            <mxPoint x="-204" y="1962" as="sourcePoint" />
            <mxPoint x="-154" y="1912" as="targetPoint" />
          </mxGeometry>
        </mxCell>
        <mxCell id="uRwzK3sYCpa1AdK9t9Te-106" value="afiliación" style="rhombus;whiteSpace=wrap;html=1;fillColor=#f8cecc;strokeColor=#b85450;" vertex="1" parent="1">
          <mxGeometry x="461" y="895.5" width="80" height="80" as="geometry" />
        </mxCell>
        <mxCell id="uRwzK3sYCpa1AdK9t9Te-107" value="institución provisional" style="rounded=1;whiteSpace=wrap;html=1;fillColor=#dae8fc;strokeColor=#6c8ebf;" vertex="1" parent="1">
          <mxGeometry x="654" y="905.5" width="120" height="60" as="geometry" />
        </mxCell>
        <mxCell id="uRwzK3sYCpa1AdK9t9Te-108" value="&lt;u&gt;codigo ministerial&lt;/u&gt;" style="ellipse;whiteSpace=wrap;html=1;fillColor=#fff2cc;strokeColor=#d6b656;" vertex="1" parent="1">
          <mxGeometry x="791" y="834" width="81" height="58" as="geometry" />
        </mxCell>
        <mxCell id="uRwzK3sYCpa1AdK9t9Te-109" value="nombre" style="ellipse;whiteSpace=wrap;html=1;fillColor=#fff2cc;strokeColor=#d6b656;" vertex="1" parent="1">
          <mxGeometry x="872" y="868" width="78" height="41" as="geometry" />
        </mxCell>
        <mxCell id="uRwzK3sYCpa1AdK9t9Te-110" value="tipo" style="ellipse;whiteSpace=wrap;html=1;fillColor=#fff2cc;strokeColor=#d6b656;" vertex="1" parent="1">
          <mxGeometry x="885" y="914" width="76" height="43" as="geometry" />
        </mxCell>
        <mxCell id="uRwzK3sYCpa1AdK9t9Te-111" value="rut" style="ellipse;whiteSpace=wrap;html=1;fillColor=#fff2cc;strokeColor=#d6b656;" vertex="1" parent="1">
          <mxGeometry x="882" y="966" width="68" height="44" as="geometry" />
        </mxCell>
        <mxCell id="uRwzK3sYCpa1AdK9t9Te-112" value="enlace" style="ellipse;whiteSpace=wrap;html=1;fillColor=#fff2cc;strokeColor=#d6b656;" vertex="1" parent="1">
          <mxGeometry x="799" y="997" width="87" height="48" as="geometry" />
        </mxCell>
        <mxCell id="uRwzK3sYCpa1AdK9t9Te-113" value="isA" style="triangle;whiteSpace=wrap;html=1;direction=south;fillColor=#d5e8d4;strokeColor=#82b366;" vertex="1" parent="1">
          <mxGeometry x="674" y="1027" width="80" height="60" as="geometry" />
        </mxCell>
        <mxCell id="uRwzK3sYCpa1AdK9t9Te-114" value="fonasa" style="rounded=1;whiteSpace=wrap;html=1;fillColor=#dae8fc;strokeColor=#6c8ebf;" vertex="1" parent="1">
          <mxGeometry x="565" y="1158" width="120" height="60" as="geometry" />
        </mxCell>
        <mxCell id="uRwzK3sYCpa1AdK9t9Te-115" value="" style="endArrow=none;html=1;rounded=0;fontSize=12;startSize=8;endSize=8;curved=1;exitX=1;exitY=0.5;exitDx=0;exitDy=0;" edge="1" parent="1" source="uRwzK3sYCpa1AdK9t9Te-31" target="uRwzK3sYCpa1AdK9t9Te-106">
          <mxGeometry width="50" height="50" relative="1" as="geometry">
            <mxPoint x="418" y="1075" as="sourcePoint" />
            <mxPoint x="468" y="1025" as="targetPoint" />
          </mxGeometry>
        </mxCell>
        <mxCell id="uRwzK3sYCpa1AdK9t9Te-116" value="1" style="text;html=1;align=center;verticalAlign=middle;resizable=0;points=[];autosize=1;strokeColor=none;fillColor=none;fontSize=16;" vertex="1" parent="1">
          <mxGeometry x="330.5" y="901.5" width="27" height="31" as="geometry" />
        </mxCell>
        <mxCell id="uRwzK3sYCpa1AdK9t9Te-117" value="" style="endArrow=none;html=1;rounded=0;fontSize=12;startSize=8;endSize=8;curved=1;exitX=1;exitY=0.5;exitDx=0;exitDy=0;entryX=0;entryY=0.5;entryDx=0;entryDy=0;" edge="1" parent="1" source="uRwzK3sYCpa1AdK9t9Te-106" target="uRwzK3sYCpa1AdK9t9Te-107">
          <mxGeometry width="50" height="50" relative="1" as="geometry">
            <mxPoint x="545" y="1075" as="sourcePoint" />
            <mxPoint x="595" y="1025" as="targetPoint" />
          </mxGeometry>
        </mxCell>
        <mxCell id="uRwzK3sYCpa1AdK9t9Te-118" value="N" style="text;html=1;align=center;verticalAlign=middle;resizable=0;points=[];autosize=1;strokeColor=none;fillColor=none;fontSize=16;" vertex="1" parent="1">
          <mxGeometry x="583" y="905.5" width="30" height="31" as="geometry" />
        </mxCell>
        <mxCell id="uRwzK3sYCpa1AdK9t9Te-120" value="tipo_beneficiario" style="ellipse;whiteSpace=wrap;html=1;fillColor=#fff2cc;strokeColor=#d6b656;" vertex="1" parent="1">
          <mxGeometry x="412.5" y="771" width="95" height="47" as="geometry" />
        </mxCell>
        <mxCell id="uRwzK3sYCpa1AdK9t9Te-121" value="run_titular" style="ellipse;whiteSpace=wrap;html=1;fillColor=#fff2cc;strokeColor=#d6b656;" vertex="1" parent="1">
          <mxGeometry x="524" y="771" width="110" height="46" as="geometry" />
        </mxCell>
        <mxCell id="uRwzK3sYCpa1AdK9t9Te-122" value="" style="endArrow=none;html=1;rounded=0;fontSize=12;startSize=8;endSize=8;curved=1;exitX=0.5;exitY=0;exitDx=0;exitDy=0;entryX=0.5;entryY=1;entryDx=0;entryDy=0;" edge="1" parent="1" source="uRwzK3sYCpa1AdK9t9Te-106" target="uRwzK3sYCpa1AdK9t9Te-121">
          <mxGeometry width="50" height="50" relative="1" as="geometry">
            <mxPoint x="523" y="1077" as="sourcePoint" />
            <mxPoint x="573" y="1027" as="targetPoint" />
          </mxGeometry>
        </mxCell>
        <mxCell id="uRwzK3sYCpa1AdK9t9Te-123" value="" style="endArrow=none;html=1;rounded=0;fontSize=12;startSize=8;endSize=8;curved=1;exitX=0.5;exitY=0;exitDx=0;exitDy=0;entryX=0.5;entryY=1;entryDx=0;entryDy=0;" edge="1" parent="1" source="uRwzK3sYCpa1AdK9t9Te-106" target="uRwzK3sYCpa1AdK9t9Te-120">
          <mxGeometry width="50" height="50" relative="1" as="geometry">
            <mxPoint x="523" y="1077" as="sourcePoint" />
            <mxPoint x="573" y="1027" as="targetPoint" />
          </mxGeometry>
        </mxCell>
        <mxCell id="uRwzK3sYCpa1AdK9t9Te-124" value="isapres" style="rounded=1;whiteSpace=wrap;html=1;fillColor=#dae8fc;strokeColor=#6c8ebf;" vertex="1" parent="1">
          <mxGeometry x="742" y="1158" width="120" height="60" as="geometry" />
        </mxCell>
        <mxCell id="uRwzK3sYCpa1AdK9t9Te-125" value="" style="endArrow=none;html=1;rounded=0;fontSize=12;startSize=8;endSize=8;curved=1;entryX=0.5;entryY=1;entryDx=0;entryDy=0;exitX=0;exitY=0.5;exitDx=0;exitDy=0;" edge="1" parent="1" source="uRwzK3sYCpa1AdK9t9Te-113" target="uRwzK3sYCpa1AdK9t9Te-107">
          <mxGeometry width="50" height="50" relative="1" as="geometry">
            <mxPoint x="661" y="1022" as="sourcePoint" />
            <mxPoint x="711" y="972" as="targetPoint" />
          </mxGeometry>
        </mxCell>
        <mxCell id="uRwzK3sYCpa1AdK9t9Te-126" value="" style="endArrow=none;html=1;rounded=0;fontSize=12;startSize=8;endSize=8;curved=1;exitX=1;exitY=0.5;exitDx=0;exitDy=0;entryX=0.5;entryY=0;entryDx=0;entryDy=0;" edge="1" parent="1" source="uRwzK3sYCpa1AdK9t9Te-113" target="uRwzK3sYCpa1AdK9t9Te-124">
          <mxGeometry width="50" height="50" relative="1" as="geometry">
            <mxPoint x="769" y="1095" as="sourcePoint" />
            <mxPoint x="819" y="1045" as="targetPoint" />
          </mxGeometry>
        </mxCell>
        <mxCell id="uRwzK3sYCpa1AdK9t9Te-127" value="" style="endArrow=none;html=1;rounded=0;fontSize=12;startSize=8;endSize=8;curved=1;exitX=1;exitY=0.5;exitDx=0;exitDy=0;entryX=0.5;entryY=0;entryDx=0;entryDy=0;" edge="1" parent="1" source="uRwzK3sYCpa1AdK9t9Te-113" target="uRwzK3sYCpa1AdK9t9Te-114">
          <mxGeometry width="50" height="50" relative="1" as="geometry">
            <mxPoint x="769" y="1095" as="sourcePoint" />
            <mxPoint x="819" y="1045" as="targetPoint" />
          </mxGeometry>
        </mxCell>
        <mxCell id="uRwzK3sYCpa1AdK9t9Te-128" value="" style="endArrow=none;html=1;rounded=0;fontSize=12;startSize=8;endSize=8;curved=1;entryX=1;entryY=0.5;entryDx=0;entryDy=0;exitX=0.5;exitY=1;exitDx=0;exitDy=0;" edge="1" parent="1" source="uRwzK3sYCpa1AdK9t9Te-108" target="uRwzK3sYCpa1AdK9t9Te-107">
          <mxGeometry width="50" height="50" relative="1" as="geometry">
            <mxPoint x="675" y="1101" as="sourcePoint" />
            <mxPoint x="725" y="1051" as="targetPoint" />
          </mxGeometry>
        </mxCell>
        <mxCell id="uRwzK3sYCpa1AdK9t9Te-129" value="" style="endArrow=none;html=1;rounded=0;fontSize=12;startSize=8;endSize=8;curved=1;entryX=1;entryY=0.5;entryDx=0;entryDy=0;exitX=0;exitY=0.5;exitDx=0;exitDy=0;" edge="1" parent="1" source="uRwzK3sYCpa1AdK9t9Te-109" target="uRwzK3sYCpa1AdK9t9Te-107">
          <mxGeometry width="50" height="50" relative="1" as="geometry">
            <mxPoint x="675" y="1101" as="sourcePoint" />
            <mxPoint x="725" y="1051" as="targetPoint" />
          </mxGeometry>
        </mxCell>
        <mxCell id="uRwzK3sYCpa1AdK9t9Te-130" value="" style="endArrow=none;html=1;rounded=0;fontSize=12;startSize=8;endSize=8;curved=1;exitX=1;exitY=0.5;exitDx=0;exitDy=0;entryX=0;entryY=0.5;entryDx=0;entryDy=0;" edge="1" parent="1" source="uRwzK3sYCpa1AdK9t9Te-107" target="uRwzK3sYCpa1AdK9t9Te-110">
          <mxGeometry width="50" height="50" relative="1" as="geometry">
            <mxPoint x="798" y="970" as="sourcePoint" />
            <mxPoint x="848" y="920" as="targetPoint" />
          </mxGeometry>
        </mxCell>
        <mxCell id="uRwzK3sYCpa1AdK9t9Te-131" value="" style="endArrow=none;html=1;rounded=0;fontSize=12;startSize=8;endSize=8;curved=1;exitX=1;exitY=0.5;exitDx=0;exitDy=0;entryX=0;entryY=0.5;entryDx=0;entryDy=0;" edge="1" parent="1" source="uRwzK3sYCpa1AdK9t9Te-107" target="uRwzK3sYCpa1AdK9t9Te-111">
          <mxGeometry width="50" height="50" relative="1" as="geometry">
            <mxPoint x="794" y="992" as="sourcePoint" />
            <mxPoint x="844" y="942" as="targetPoint" />
          </mxGeometry>
        </mxCell>
        <mxCell id="uRwzK3sYCpa1AdK9t9Te-132" value="" style="endArrow=none;html=1;rounded=0;fontSize=12;startSize=8;endSize=8;curved=1;exitX=1;exitY=0.5;exitDx=0;exitDy=0;entryX=0.5;entryY=0;entryDx=0;entryDy=0;" edge="1" parent="1" source="uRwzK3sYCpa1AdK9t9Te-107" target="uRwzK3sYCpa1AdK9t9Te-112">
          <mxGeometry width="50" height="50" relative="1" as="geometry">
            <mxPoint x="764" y="1027" as="sourcePoint" />
            <mxPoint x="814" y="977" as="targetPoint" />
          </mxGeometry>
        </mxCell>
        <mxCell id="uRwzK3sYCpa1AdK9t9Te-133" value="institución de salud" style="ellipse;whiteSpace=wrap;html=1;fillColor=#fff2cc;strokeColor=#d6b656;" vertex="1" parent="1">
          <mxGeometry x="261" y="859" width="86" height="50" as="geometry" />
        </mxCell>
        <mxCell id="uRwzK3sYCpa1AdK9t9Te-134" value="" style="endArrow=none;html=1;rounded=0;fontSize=12;startSize=8;endSize=8;curved=1;exitX=0.5;exitY=0;exitDx=0;exitDy=0;entryX=0;entryY=0.5;entryDx=0;entryDy=0;" edge="1" parent="1" source="uRwzK3sYCpa1AdK9t9Te-31" target="uRwzK3sYCpa1AdK9t9Te-133">
          <mxGeometry width="50" height="50" relative="1" as="geometry">
            <mxPoint x="191" y="904" as="sourcePoint" />
            <mxPoint x="241" y="854" as="targetPoint" />
          </mxGeometry>
        </mxCell>
        <mxCell id="uRwzK3sYCpa1AdK9t9Te-135" value="" style="endArrow=none;html=1;rounded=0;fontSize=12;startSize=8;endSize=8;curved=1;exitX=0.5;exitY=0;exitDx=0;exitDy=0;entryX=0;entryY=0.5;entryDx=0;entryDy=0;" edge="1" parent="1" source="uRwzK3sYCpa1AdK9t9Te-31" target="uRwzK3sYCpa1AdK9t9Te-32">
          <mxGeometry width="50" height="50" relative="1" as="geometry">
            <mxPoint x="299" y="1007" as="sourcePoint" />
            <mxPoint x="349" y="957" as="targetPoint" />
          </mxGeometry>
        </mxCell>
        <mxCell id="uRwzK3sYCpa1AdK9t9Te-136" value="" style="endArrow=none;html=1;rounded=0;fontSize=12;startSize=8;endSize=8;curved=1;exitX=0.5;exitY=0;exitDx=0;exitDy=0;entryX=0;entryY=1;entryDx=0;entryDy=0;" edge="1" parent="1" source="uRwzK3sYCpa1AdK9t9Te-31" target="uRwzK3sYCpa1AdK9t9Te-33">
          <mxGeometry width="50" height="50" relative="1" as="geometry">
            <mxPoint x="299" y="1007" as="sourcePoint" />
            <mxPoint x="349" y="957" as="targetPoint" />
          </mxGeometry>
        </mxCell>
        <mxCell id="uRwzK3sYCpa1AdK9t9Te-137" value="" style="endArrow=none;html=1;rounded=0;fontSize=12;startSize=8;endSize=8;curved=1;exitX=0.5;exitY=0;exitDx=0;exitDy=0;entryX=0.5;entryY=1;entryDx=0;entryDy=0;" edge="1" parent="1" source="uRwzK3sYCpa1AdK9t9Te-31" target="uRwzK3sYCpa1AdK9t9Te-34">
          <mxGeometry width="50" height="50" relative="1" as="geometry">
            <mxPoint x="299" y="1007" as="sourcePoint" />
            <mxPoint x="349" y="957" as="targetPoint" />
          </mxGeometry>
        </mxCell>
        <mxCell id="uRwzK3sYCpa1AdK9t9Te-138" value="" style="endArrow=none;html=1;rounded=0;fontSize=12;startSize=8;endSize=8;curved=1;exitX=0.5;exitY=0;exitDx=0;exitDy=0;entryX=1;entryY=1;entryDx=0;entryDy=0;" edge="1" parent="1" source="uRwzK3sYCpa1AdK9t9Te-31" target="uRwzK3sYCpa1AdK9t9Te-37">
          <mxGeometry width="50" height="50" relative="1" as="geometry">
            <mxPoint x="299" y="1007" as="sourcePoint" />
            <mxPoint x="349" y="957" as="targetPoint" />
          </mxGeometry>
        </mxCell>
        <mxCell id="uRwzK3sYCpa1AdK9t9Te-139" value="" style="endArrow=none;html=1;rounded=0;fontSize=12;startSize=8;endSize=8;curved=1;exitX=0.5;exitY=0;exitDx=0;exitDy=0;entryX=1;entryY=0.5;entryDx=0;entryDy=0;" edge="1" parent="1" source="uRwzK3sYCpa1AdK9t9Te-31" target="uRwzK3sYCpa1AdK9t9Te-35">
          <mxGeometry width="50" height="50" relative="1" as="geometry">
            <mxPoint x="186" y="1008" as="sourcePoint" />
            <mxPoint x="236" y="958" as="targetPoint" />
          </mxGeometry>
        </mxCell>
        <mxCell id="uRwzK3sYCpa1AdK9t9Te-140" value="" style="endArrow=none;html=1;rounded=0;fontSize=12;startSize=8;endSize=8;curved=1;exitX=0.5;exitY=0;exitDx=0;exitDy=0;entryX=1;entryY=0.5;entryDx=0;entryDy=0;" edge="1" parent="1" source="uRwzK3sYCpa1AdK9t9Te-31" target="uRwzK3sYCpa1AdK9t9Te-36">
          <mxGeometry width="50" height="50" relative="1" as="geometry">
            <mxPoint x="186" y="1008" as="sourcePoint" />
            <mxPoint x="236" y="958" as="targetPoint" />
          </mxGeometry>
        </mxCell>
        <mxCell id="uRwzK3sYCpa1AdK9t9Te-141" value="n" style="text;html=1;align=center;verticalAlign=middle;resizable=0;points=[];autosize=1;strokeColor=none;fillColor=none;fontSize=16;" vertex="1" parent="1">
          <mxGeometry x="49.5" y="1466.5" width="27" height="31" as="geometry" />
        </mxCell>
        <mxCell id="uRwzK3sYCpa1AdK9t9Te-142" value="1" style="text;html=1;align=center;verticalAlign=middle;resizable=0;points=[];autosize=1;strokeColor=none;fillColor=none;fontSize=16;" vertex="1" parent="1">
          <mxGeometry x="115.5" y="1635.5" width="27" height="31" as="geometry" />
        </mxCell>
        <mxCell id="uRwzK3sYCpa1AdK9t9Te-143" value="n" style="text;html=1;align=center;verticalAlign=middle;resizable=0;points=[];autosize=1;strokeColor=none;fillColor=none;fontSize=16;" vertex="1" parent="1">
          <mxGeometry x="313.5" y="1300.5" width="27" height="31" as="geometry" />
        </mxCell>
        <mxCell id="uRwzK3sYCpa1AdK9t9Te-144" value="1" style="text;html=1;align=center;verticalAlign=middle;resizable=0;points=[];autosize=1;strokeColor=none;fillColor=none;fontSize=16;" vertex="1" parent="1">
          <mxGeometry x="233.5" y="1610.5" width="27" height="31" as="geometry" />
        </mxCell>
        <mxCell id="uRwzK3sYCpa1AdK9t9Te-145" value="" style="endArrow=none;html=1;rounded=0;fontSize=12;startSize=8;endSize=8;curved=1;entryX=0.5;entryY=1;entryDx=0;entryDy=0;exitX=0;exitY=0.5;exitDx=0;exitDy=0;" edge="1" parent="1" source="uRwzK3sYCpa1AdK9t9Te-42" target="uRwzK3sYCpa1AdK9t9Te-40">
          <mxGeometry width="50" height="50" relative="1" as="geometry">
            <mxPoint x="66" y="1478" as="sourcePoint" />
            <mxPoint x="116" y="1428" as="targetPoint" />
          </mxGeometry>
        </mxCell>
        <mxCell id="uRwzK3sYCpa1AdK9t9Te-146" value="" style="endArrow=none;html=1;rounded=0;fontSize=12;startSize=8;endSize=8;curved=1;entryX=1;entryY=0.5;entryDx=0;entryDy=0;exitX=0.5;exitY=0;exitDx=0;exitDy=0;" edge="1" parent="1" source="uRwzK3sYCpa1AdK9t9Te-43" target="uRwzK3sYCpa1AdK9t9Te-42">
          <mxGeometry width="50" height="50" relative="1" as="geometry">
            <mxPoint x="66" y="1478" as="sourcePoint" />
            <mxPoint x="116" y="1428" as="targetPoint" />
          </mxGeometry>
        </mxCell>
        <mxCell id="uRwzK3sYCpa1AdK9t9Te-147" value="" style="endArrow=none;html=1;rounded=0;fontSize=12;startSize=8;endSize=8;curved=1;entryX=1;entryY=0.5;entryDx=0;entryDy=0;exitX=0.5;exitY=0;exitDx=0;exitDy=0;" edge="1" parent="1" source="uRwzK3sYCpa1AdK9t9Te-44" target="uRwzK3sYCpa1AdK9t9Te-42">
          <mxGeometry width="50" height="50" relative="1" as="geometry">
            <mxPoint x="66" y="1478" as="sourcePoint" />
            <mxPoint x="116" y="1428" as="targetPoint" />
          </mxGeometry>
        </mxCell>
        <mxCell id="uRwzK3sYCpa1AdK9t9Te-148" value="" style="endArrow=none;html=1;rounded=0;fontSize=12;startSize=8;endSize=8;curved=1;entryX=0;entryY=0.5;entryDx=0;entryDy=0;exitX=1;exitY=0.5;exitDx=0;exitDy=0;" edge="1" parent="1" source="uRwzK3sYCpa1AdK9t9Te-45" target="uRwzK3sYCpa1AdK9t9Te-43">
          <mxGeometry width="50" height="50" relative="1" as="geometry">
            <mxPoint x="66" y="1478" as="sourcePoint" />
            <mxPoint x="116" y="1428" as="targetPoint" />
          </mxGeometry>
        </mxCell>
        <mxCell id="uRwzK3sYCpa1AdK9t9Te-149" value="" style="endArrow=none;html=1;rounded=0;fontSize=12;startSize=8;endSize=8;curved=1;entryX=0.5;entryY=1;entryDx=0;entryDy=0;exitX=0;exitY=0.5;exitDx=0;exitDy=0;" edge="1" parent="1" source="uRwzK3sYCpa1AdK9t9Te-38" target="uRwzK3sYCpa1AdK9t9Te-31">
          <mxGeometry width="50" height="50" relative="1" as="geometry">
            <mxPoint x="156" y="1175" as="sourcePoint" />
            <mxPoint x="206" y="1125" as="targetPoint" />
          </mxGeometry>
        </mxCell>
        <mxCell id="uRwzK3sYCpa1AdK9t9Te-150" value="" style="endArrow=none;html=1;rounded=0;fontSize=12;startSize=8;endSize=8;curved=1;entryX=1;entryY=0.5;entryDx=0;entryDy=0;exitX=0.5;exitY=0;exitDx=0;exitDy=0;" edge="1" parent="1" source="uRwzK3sYCpa1AdK9t9Te-40" target="uRwzK3sYCpa1AdK9t9Te-38">
          <mxGeometry width="50" height="50" relative="1" as="geometry">
            <mxPoint x="156" y="1175" as="sourcePoint" />
            <mxPoint x="206" y="1125" as="targetPoint" />
          </mxGeometry>
        </mxCell>
        <mxCell id="uRwzK3sYCpa1AdK9t9Te-151" value="" style="endArrow=none;html=1;rounded=0;fontSize=12;startSize=8;endSize=8;curved=1;entryX=1;entryY=0.5;entryDx=0;entryDy=0;exitX=0.5;exitY=0;exitDx=0;exitDy=0;" edge="1" parent="1" source="uRwzK3sYCpa1AdK9t9Te-41" target="uRwzK3sYCpa1AdK9t9Te-38">
          <mxGeometry width="50" height="50" relative="1" as="geometry">
            <mxPoint x="156" y="1175" as="sourcePoint" />
            <mxPoint x="206" y="1125" as="targetPoint" />
          </mxGeometry>
        </mxCell>
      </root>
    </mxGraphModel>
  </diagram>
</mxfile>
